#N canvas 1021 -517 450 300 12;
#X floatatom 36 100 3 0 0 0 - - - 0;
#X obj 20 74 ctlin;
#X obj 20 172 spigot;
#X obj 36 145 tgl 15 0 empty empty empty 17 7 0 10 #fcfcfc #000000 #000000 0 1;
#X obj 64 201 / 128;
#X obj 36 120 == 93;
#X obj 35 233 outlet, f 7;
#X floatatom 106 123 3 0 0 0 - - - 0;
#X floatatom 140 123 5 0 0 0 - - - 0;
#X obj 74 15 inlet;
#X connect 0 0 5 0;
#X connect 1 0 2 0;
#X connect 1 1 0 0;
#X connect 2 0 6 0;
#X connect 2 0 8 0;
#X connect 3 0 2 1;
#X connect 5 0 3 0;
#X connect 9 0 5 1;
#X connect 9 0 7 0;
#X coords 0 -1 1 1 85 50 1 100 100;
