#N canvas 498 -637 840 496 12;
#X obj 317 82 minilab-knob;
#X obj 424 82 minilab-knob;
#X obj 534 82 minilab-knob;
#X obj 641 82 minilab-knob;
#X obj 308 207 minilab-knob;
#X obj 409 208 minilab-knob;
#X obj 519 208 minilab-knob;
#X obj 626 208 minilab-knob;
#X obj 92 42 unpack f f f f f f f f;
#X msg 94 11 74 71 76 77 93 18 19 16;
#X obj 18 12 loadbang;
#X obj 26 183 moonlib/mknob 25 100 0 127 0 0 empty empty empty -2 -6 0 8 #fcfcfc #000000 #000000 4677 1;
#X obj 61 183 moonlib/mknob 25 100 0 127 0 0 empty empty empty -2 -6 0 8 #fcfcfc #000000 #000000 5301 1;
#X obj 27 219 moonlib/mknob 25 100 0 127 0 0 empty empty empty -2 -6 0 8 #fcfcfc #000000 #000000 2027 1;
#X obj 62 219 moonlib/mknob 25 100 0 127 0 0 empty empty empty -2 -6 0 8 #fcfcfc #000000 #000000 4755 1;
#X obj 97 183 moonlib/mknob 25 100 0 127 0 0 empty empty empty -2 -6 0 8 #fcfcfc #000000 #000000 8887 1;
#X obj 132 183 moonlib/mknob 25 100 0 127 0 0 empty empty empty -2 -6 0 8 #fcfcfc #000000 #000000 3664 1;
#X obj 98 219 moonlib/mknob 25 100 0 127 0 0 empty empty empty -2 -6 0 8 #fcfcfc #000000 #000000 8029 1;
#X obj 133 219 moonlib/mknob 25 100 0 127 0 0 empty empty empty -2 -6 0 8 #fcfcfc #000000 #000000 2339 1;
#X obj 415 389 outlet;
#X obj 518 391 outlet;
#X obj 626 391 outlet;
#X obj 729 393 outlet;
#X obj 28 384 outlet;
#X obj 131 386 outlet;
#X obj 239 386 outlet;
#X obj 342 388 outlet;
#X connect 0 0 11 0;
#X connect 0 0 23 0;
#X connect 1 0 12 0;
#X connect 1 0 24 0;
#X connect 2 0 15 0;
#X connect 2 0 25 0;
#X connect 3 0 16 0;
#X connect 3 0 26 0;
#X connect 4 0 13 0;
#X connect 4 0 19 0;
#X connect 5 0 14 0;
#X connect 5 0 20 0;
#X connect 6 0 17 0;
#X connect 6 0 21 0;
#X connect 7 0 18 0;
#X connect 7 0 22 0;
#X connect 8 0 0 0;
#X connect 8 1 1 0;
#X connect 8 2 2 0;
#X connect 8 3 3 0;
#X connect 8 4 4 0;
#X connect 8 5 5 0;
#X connect 8 6 6 0;
#X connect 8 7 7 0;
#X connect 9 0 8 0;
#X connect 10 0 9 0;
#X coords 0 -1 1 1 220 200 1 20 100;
