#N canvas 610 -683 839 532 12;
#X obj 37 20 notein;
#X obj 321 43 route 44 45 46 47 48 49 50 51;
#X msg 32 112 bang;
#X msg 32 134 1 0 \, 0 1 1;
#X obj 31 157 vline~;
#X obj 39 56 spigot;
#X obj 30 189 outlet~;
#X msg 92 161 bang;
#X msg 92 183 1 0 \, 0 1 1;
#X obj 91 206 vline~;
#X obj 90 238 outlet~;
#X msg 162 211 bang;
#X msg 162 233 1 0 \, 0 1 1;
#X obj 161 256 vline~;
#X obj 160 288 outlet~;
#X msg 228 260 bang;
#X msg 228 282 1 0 \, 0 1 1;
#X obj 227 305 vline~;
#X obj 226 337 outlet~;
#X msg 298 312 bang;
#X msg 298 334 1 0 \, 0 1 1;
#X obj 297 357 vline~;
#X obj 296 389 outlet~;
#X msg 361 361 bang;
#X msg 361 383 1 0 \, 0 1 1;
#X obj 360 406 vline~;
#X obj 360 434 outlet~;
#X msg 457 387 bang;
#X msg 457 409 1 0 \, 0 1 1;
#X obj 456 432 vline~;
#X obj 455 464 outlet~;
#X msg 554 414 bang;
#X msg 554 436 1 0 \, 0 1 1;
#X obj 553 459 vline~;
#X obj 552 491 outlet~;
#X obj 326 137 bng 19 250 50 0 empty empty empty 0 -10 0 12 #fcfcfc #000000 #000000;
#X obj 349 137 bng 19 250 50 0 empty empty empty 0 -10 0 12 #fcfcfc #000000 #000000;
#X obj 373 137 bng 19 250 50 0 empty empty empty 0 -10 0 12 #fcfcfc #000000 #000000;
#X obj 396 137 bng 19 250 50 0 empty empty empty 0 -10 0 12 #fcfcfc #000000 #000000;
#X obj 419 137 bng 19 250 50 0 empty empty empty 0 -10 0 12 #fcfcfc #000000 #000000;
#X obj 441 137 bng 19 250 50 0 empty empty empty 0 -10 0 12 #fcfcfc #000000 #000000;
#X obj 465 137 bng 19 250 50 0 empty empty empty 0 -10 0 12 #fcfcfc #000000 #000000;
#X obj 488 137 bng 19 250 50 0 empty empty empty 0 -10 0 12 #fcfcfc #000000 #000000;
#X connect 0 0 5 0;
#X connect 0 1 5 1;
#X connect 1 0 2 0;
#X connect 1 0 35 0;
#X connect 1 1 7 0;
#X connect 1 1 36 0;
#X connect 1 2 11 0;
#X connect 1 2 37 0;
#X connect 1 3 15 0;
#X connect 1 3 38 0;
#X connect 1 4 19 0;
#X connect 1 4 39 0;
#X connect 1 5 23 0;
#X connect 1 5 40 0;
#X connect 1 6 27 0;
#X connect 1 6 41 0;
#X connect 1 7 31 0;
#X connect 1 7 42 0;
#X connect 2 0 3 0;
#X connect 3 0 4 0;
#X connect 4 0 6 0;
#X connect 5 0 1 0;
#X connect 7 0 8 0;
#X connect 8 0 9 0;
#X connect 9 0 10 0;
#X connect 11 0 12 0;
#X connect 12 0 13 0;
#X connect 13 0 14 0;
#X connect 15 0 16 0;
#X connect 16 0 17 0;
#X connect 17 0 18 0;
#X connect 19 0 20 0;
#X connect 20 0 21 0;
#X connect 21 0 22 0;
#X connect 23 0 24 0;
#X connect 24 0 25 0;
#X connect 25 0 26 0;
#X connect 27 0 28 0;
#X connect 28 0 29 0;
#X connect 29 0 30 0;
#X connect 31 0 32 0;
#X connect 32 0 33 0;
#X connect 33 0 34 0;
#X coords 0 -1 1 1 195 60 1 320 100;
